#!OML:ASF F:\VICON\USERDATA\INSTALL\rory3\rory3.ASF
:FULLY-SPECIFIED
:DEGREES
119
root 0.821435 17.9378 -0.573216 0.90518 -31.1088 1.96978
lowerback -0.267475 -1.59432 -4.42322
upperback 0.245248 -2.12006 2.30464
thorax 0.651076 -1.0869 4.84
lowerneck -16.4193 1.62589 -10.0974
upperneck 25.6026 3.94399 4.12515
head 10.6659 1.27955 3.72354
rclavicle -7.36e-014 1.51076e-014
rhumerus -37.1569 -15.828 -68.1871
rradius 38.1351
rwrist 14.3546
rhand -25.9781 12.5661
rfingers 7.12502
rthumb 0.566875 -17.4129
lclavicle -7.36e-014 1.51076e-014
lhumerus 13.4305 -22.8883 68.9687
lradius 112.194
lwrist -4.4984
lhand -31.0917 37.3548
lfingers 7.12502
lthumb -4.3717 67.2896
rfemur -9.66591 3.40557 9.84021
rtibia 23.9238
rfoot -14.8662 -10.1653
rtoes 0.283502
lfemur -0.777138 2.15033 -24.4113
ltibia 14.2152
lfoot -10.4339 6.58034
ltoes -11.9542
120
root 0.822573 17.9383 -0.574362 0.933038 -31.0807 1.92479
lowerback -0.273132 -1.49587 -4.32038
upperback 0.175785 -1.98823 2.19921
thorax 0.559861 -1.01594 4.67509
lowerneck -16.3479 1.53104 -9.86242
upperneck 25.5061 3.71459 4.19726
head 10.6361 1.21071 3.6768
rclavicle -8.17999e-014 -1.82882e-014
rhumerus -37.2974 -16.1243 -68.2176
rradius 38.1863
rwrist 14.4697
rhand -25.9587 12.8884
rfingers 7.12502
rthumb 0.585641 -17.0905
lclavicle -8.17999e-014 -1.82882e-014
lhumerus 14.0648 -23.198 68.4826
lradius 111.788
lwrist -5.13065
lhand -31.8689 37.8718
lfingers 7.12502
lthumb -5.12212 67.7899
rfemur -9.67687 3.38632 9.88013
rtibia 23.9329
rfoot -14.9564 -10.1313
rtoes 1.09614
lfemur -0.809377 2.1984 -24.3733
ltibia 14.2583
lfoot -10.4253 6.57231
ltoes -12.2643
121
root 0.822176 17.9369 -0.573815 0.887678 -31.0835 1.98446
lowerback -0.32774 -1.23159 -4.2086
upperback 0.0971304 -1.63194 1.88782
thorax 0.456696 -0.831462 4.29308
lowerneck -15.8735 1.36894 -9.24435
upperneck 25.1934 3.2438 4.24438
head 10.4731 1.07174 3.51027
rclavicle -4.48011e-014 6.36111e-015
rhumerus -37.791 -16.8966 -68.2543
rradius 38.2735
rwrist 14.5936
rhand -26.0947 13.2593
rfingers 7.12502
rthumb 0.454296 -16.7199
lclavicle -4.48011e-014 6.36111e-015
lhumerus 14.9807 -23.864 67.7541
lradius 111.561
lwrist -4.88102
lhand -32.1405 37.3664
lfingers 7.12502
lthumb -5.38437 67.278
rfemur -9.6671 3.38034 9.82078
rtibia 23.9509
rfoot -15.0318 -10.0806
rtoes 1.49358
lfemur -0.796469 2.10384 -24.4308
ltibia 14.2778
lfoot -10.4592 6.63992
ltoes -11.995
122
root 0.821602 17.9365 -0.573641 0.881276 -31.0999 1.99774
lowerback -0.374651 -0.967719 -4.04012
upperback 0.0124463 -1.2777 1.59081
thorax 0.347799 -0.648475 3.89434
lowerneck -15.4835 1.19544 -8.56618
upperneck 24.9299 2.79009 4.17598
head 10.3457 0.927674 3.29915
rclavicle -3.25634e-014 4.37326e-015
rhumerus -38.2882 -17.569 -68.2987
rradius 38.4334
rwrist 14.6558
rhand -26.105 13.5899
rfingers 7.12502
rthumb 0.444364 -16.3894
lclavicle -3.25634e-014 4.37326e-015
lhumerus 15.9526 -24.441 67.1198
lradius 111.294
lwrist -4.42252
lhand -32.1255 36.3078
lfingers 7.12502
lthumb -5.36991 66.2198
rfemur -9.67501 3.38106 9.80658
rtibia 23.965
rfoot -15.0713 -10.0498
rtoes 1.69169
lfemur -0.791608 2.06515 -24.4391
ltibia 14.2774
lfoot -10.4949 6.66397
ltoes -11.5006
123
root 0.821092 17.9375 -0.573472 0.88092 -31.0979 2.00413
lowerback -0.397406 -1.04201 -4.06698
upperback 0.0116424 -1.37627 1.66666
thorax 0.371886 -0.698632 3.9865
lowerneck -15.6543 1.2319 -8.72563
upperneck 24.8296 2.8999 4.19189
head 10.3319 0.969454 3.34576
rclavicle 5.06404e-014 -5.1684e-015
rhumerus -37.9808 -17.2326 -68.4158
rradius 38.4287
rwrist 14.8004
rhand -26.0827 13.6846
rfingers 7.12502
rthumb 0.465888 -16.2946
lclavicle 5.06404e-014 -5.1684e-015
lhumerus 16.5155 -23.9593 66.8205
lradius 111.033
lwrist -4.32521
lhand -32.1793 35.7092
lfingers 7.12502
lthumb -5.42183 65.6199
rfemur -9.68697 3.36641 9.8059
rtibia 23.986
rfoot -15.0041 -10.077
rtoes 0.829279
lfemur -0.801166 2.09152 -24.445
ltibia 14.2691
lfoot -10.4328 6.65254
ltoes -11.6424
124
root 0.821041 17.9378 -0.574169 0.886448 -31.0781 1.9937
lowerback -0.374419 -1.62949 -4.33105
upperback 0.143701 -2.16388 2.30152
thorax 0.608003 -1.10507 4.78226
lowerneck -16.7357 1.61035 -10.2139
upperneck 24.9825 3.9308 4.3639
head 10.489 1.32134 3.81403
rclavicle -5.96354e-016 -1.66979e-014
rhumerus -36.4671 -15.2451 -68.6775
rradius 38.2218
rwrist 14.7535
rhand -26.0831 13.8066
rfingers 7.12502
rthumb 0.465478 -16.1727
lclavicle -5.96354e-016 -1.66979e-014
lhumerus 16.4376 -21.8124 66.9492
lradius 110.942
lwrist -4.25365
lhand -32.2796 35.4973
lfingers 7.12502
lthumb -5.51867 65.4055
rfemur -9.69784 3.32739 9.82109
rtibia 23.9986
rfoot -14.8991 -10.1307
rtoes -0.063181
lfemur -0.82181 2.10969 -24.4287
ltibia 14.2829
lfoot -10.4383 6.62783
ltoes -11.6863
